<svg data-name="Facebook" xmlns="http://www.w3.org/2000/svg" viewBox="0 0 52.5 52"><title>icon</title><path class="cls-1" d="M52.5,46.43a5.38,5.38,0,0,1-1.64,4,5.45,5.45,0,0,1-4,1.62h-10V31.46h7l1-7.9H36.91v-5a4.53,4.53,0,0,1,.71-2.78,4.06,4.06,0,0,1,3.16-1H45v-7a43.29,43.29,0,0,0-6.09-.35,10.12,10.12,0,0,0-7.45,2.73,10.22,10.22,0,0,0-2.75,7.6v5.8H21.56v7.9h7.15V52H5.62a5.45,5.45,0,0,1-4-1.62,5.38,5.38,0,0,1-1.64-4V5.57A5.38,5.38,0,0,1,1.64,1.62,5.45,5.45,0,0,1,5.62,0H46.88a5.45,5.45,0,0,1,4,1.62,5.38,5.38,0,0,1,1.64,4Z"/></svg>
