<svg data-name="pinterest" xmlns="http://www.w3.org/2000/svg" viewBox="0 0 52.5 52"><title>icon</title><path class="cls-1" d="M52.5,46.43a5.38,5.38,0,0,1-1.64,4,5.45,5.45,0,0,1-4,1.62H18.05a27.38,27.38,0,0,0,3.28-6.85l1.76-6.85a5.61,5.61,0,0,0,2.57,2.38,8.42,8.42,0,0,0,4,1,14.06,14.06,0,0,0,7.73-2.44,15.6,15.6,0,0,0,5.33-6.38A20.26,20.26,0,0,0,44.65,24,15.74,15.74,0,0,0,42.3,15.5a16.3,16.3,0,0,0-6.44-5.92,19.06,19.06,0,0,0-9-2.15A21.32,21.32,0,0,0,16.41,9.87a16.21,16.21,0,0,0-6.33,6.26,17.14,17.14,0,0,0-2.23,8.59,14.33,14.33,0,0,0,1.64,6.5,9.66,9.66,0,0,0,4.22,4.53c.55.23.86.08.94-.46l.82-3.14a.78.78,0,0,0-.24-.81,9.24,9.24,0,0,1-1.52-3,11.42,11.42,0,0,1-.59-3.54,12.25,12.25,0,0,1,1.59-6.09,11.5,11.5,0,0,1,4.39-4.47,13.23,13.23,0,0,1,7-1.86,12,12,0,0,1,8.67,3.25A11,11,0,0,1,38.2,24a15.63,15.63,0,0,1-2.63,9.34A7.81,7.81,0,0,1,29.06,37a4.28,4.28,0,0,1-3.4-1.51,3.94,3.94,0,0,1-.82-3.6,29.57,29.57,0,0,1,1.06-3.71,23.81,23.81,0,0,0,1.29-5.81,3.94,3.94,0,0,0-1.29-3.25,3.51,3.51,0,0,0-3.11-.64,5.42,5.42,0,0,0-3.1,2A8.18,8.18,0,0,0,18.4,25.3a10,10,0,0,0,.82,4.3l-1.64,6.61a93.29,93.29,0,0,0-2,9.17,26.18,26.18,0,0,0,.11,6.5l.35.12H5.62a5.45,5.45,0,0,1-4-1.62,5.38,5.38,0,0,1-1.64-4V5.57A5.38,5.38,0,0,1,1.64,1.62,5.45,5.45,0,0,1,5.62,0H46.88a5.45,5.45,0,0,1,4,1.62,5.38,5.38,0,0,1,1.64,4Z"/></svg>
