<svg data-name="linkedin" xmlns="http://www.w3.org/2000/svg" viewBox="0 0 52.5 52"><title>icon</title><path class="cls-1" d="M48.75,0a3.65,3.65,0,0,1,2.64,1.1A3.57,3.57,0,0,1,52.5,3.71V48.29a3.57,3.57,0,0,1-1.11,2.61A3.65,3.65,0,0,1,48.75,52h-45a3.65,3.65,0,0,1-2.64-1.1A3.57,3.57,0,0,1,0,48.29V3.71A3.57,3.57,0,0,1,1.11,1.1,3.65,3.65,0,0,1,3.75,0ZM12,16.37A4.44,4.44,0,0,0,15.18,15a4.34,4.34,0,0,0,0-6.27A4.43,4.43,0,0,0,12,7.43,4.21,4.21,0,0,0,8.79,8.76a4.45,4.45,0,0,0,0,6.27A4.22,4.22,0,0,0,12,16.37Zm3.87,28.2h.12V19.73H8.09V44.57Zm29.18,0V31q0-5.8-1.64-8.47-2.22-3.37-7.62-3.37a9.09,9.09,0,0,0-4.8,1.28,6.48,6.48,0,0,0-2.58,2.67h-.12V19.73h-7.5V44.57h7.74V32.27a9.37,9.37,0,0,1,.82-4.41,4.13,4.13,0,0,1,3.86-2,3.37,3.37,0,0,1,3.52,2.21,12.19,12.19,0,0,1,.59,4.41V44.57Z"/></svg>
