<svg data-name="twitter" xmlns="http://www.w3.org/2000/svg" viewBox="0 0 52.5 52"><title>icon</title><path class="cls-1" d="M46.88,0a5.45,5.45,0,0,1,4,1.62,5.38,5.38,0,0,1,1.64,4V46.43a5.38,5.38,0,0,1-1.64,4,5.45,5.45,0,0,1-4,1.62H5.62a5.45,5.45,0,0,1-4-1.62,5.38,5.38,0,0,1-1.64-4V5.57A5.38,5.38,0,0,1,1.64,1.62,5.45,5.45,0,0,1,5.62,0ZM41.13,18.46a16.89,16.89,0,0,0,3.87-4,15.91,15.91,0,0,1-4.45,1.16A7.86,7.86,0,0,0,44,11.49,14.74,14.74,0,0,1,39,13.35a7.14,7.14,0,0,0-5.5-2.44,7.78,7.78,0,0,0-7.15,4.7,7.26,7.26,0,0,0-.35,4.7,21.09,21.09,0,0,1-8.91-2.38,23.09,23.09,0,0,1-7-5.63A7.19,7.19,0,0,0,9,16.08,7.55,7.55,0,0,0,10,19.79a7.67,7.67,0,0,0,2.58,2.73A8.13,8.13,0,0,1,9,21.47v.12a7.33,7.33,0,0,0,1.76,4.87,7.74,7.74,0,0,0,4.45,2.67,10.47,10.47,0,0,1-3.51.12A7.1,7.1,0,0,0,14.41,33a7.39,7.39,0,0,0,4.46,1.45,15.16,15.16,0,0,1-9.49,3.25H7.5a21.86,21.86,0,0,0,11.84,3.37,21.7,21.7,0,0,0,12-3.37,21.05,21.05,0,0,0,7.38-8.24,22.13,22.13,0,0,0,2.46-10.1Z"/></svg>
