<svg data-name="youtube" xmlns="http://www.w3.org/2000/svg" viewBox="0 0 63.98 52"><title>icon</title><path class="cls-1" d="M62.7,10.68a53.14,53.14,0,0,1,1.17,9.52L64,26l-.11,5.8a53.77,53.77,0,0,1-1.17,9.64,8.28,8.28,0,0,1-2.11,3.48A8.16,8.16,0,0,1,57,47q-3,.81-14.29,1.16L32,48.29l-10.66-.12Q10.08,47.83,7,47a8.29,8.29,0,0,1-5.74-5.57A52,52,0,0,1,.12,31.8L0,26c0-1.7,0-3.64.12-5.8a51.34,51.34,0,0,1,1.17-9.52A8.16,8.16,0,0,1,7,5q3-.81,14.3-1.16L32,3.71l10.67.12Q53.91,4.17,57,5a8.15,8.15,0,0,1,5.75,5.69ZM25.43,35.52,42.19,26,25.43,16.6Z"/></svg>
